<?xml version="1.0" standalone="no"?>
<!DOCTYPE svg PUBLIC "-//W3C//DTD SVG 20010904//EN"
 "http://www.w3.org/TR/2001/REC-SVG-20010904/DTD/svg10.dtd">
<svg version="1.0" xmlns="http://www.w3.org/2000/svg"
 width="225.000000pt" height="225.000000pt" viewBox="0 0 225.000000 225.000000"
 preserveAspectRatio="xMidYMid meet">
<metadata>
Created by potrace 1.14, written by Peter Selinger 2001-2017
</metadata>
<g transform="translate(0.000000,225.000000) scale(0.100000,-0.100000)"
fill="#000000" stroke="none">
<path d="M0 1125 l0 -1125 1125 0 1125 0 0 1125 0 1125 -1125 0 -1125 0 0
-1125z m1415 1030 c333 -96 584 -326 709 -650 91 -238 93 -509 4 -750 -52
-143 -117 -243 -238 -368 -152 -159 -299 -243 -528 -304 -103 -28 -378 -25
-488 5 -197 53 -357 145 -499 287 -97 97 -152 175 -210 299 -226 480 -65 1047
380 1342 107 71 230 121 385 155 126 28 359 20 485 -16z"/>
<path d="M964 2110 c-352 -64 -646 -307 -771 -638 -68 -181 -78 -412 -28 -606
88 -336 369 -614 715 -707 73 -20 109 -23 255 -23 164 0 174 1 275 33 304 95
526 299 644 591 49 121 66 216 66 373 0 110 -5 153 -25 233 -72 289 -290 553
-551 669 -130 58 -218 77 -379 80 -82 2 -173 0 -201 -5z m231 -559 l40 -7 -40
-20 c-65 -31 -66 -24 69 -399 82 -227 106 -285 115 -285 6 0 153 399 207 563
25 74 25 79 9 97 -9 10 -30 22 -46 25 -16 4 -29 11 -29 15 0 15 60 21 180 18
93 -2 115 -6 115 -18 0 -8 -14 -17 -32 -21 -42 -8 -61 -24 -79 -68 -22 -52
-136 -359 -205 -551 -32 -91 -65 -176 -72 -190 -15 -29 -67 -39 -85 -17 -6 7
-31 67 -56 133 -24 65 -78 210 -120 322 -101 269 -118 304 -165 335 -112 74
-303 54 -399 -43 -68 -67 -108 -194 -97 -305 3 -27 8 -73 11 -101 11 -105 84
-212 177 -258 44 -23 64 -26 146 -26 81 0 104 4 149 25 33 15 59 36 70 55 21
36 30 38 38 5 26 -105 -206 -188 -391 -140 -136 36 -224 105 -282 223 -37 73
-38 80 -41 197 -4 135 9 188 69 274 56 83 170 149 292 170 55 10 384 4 452 -8z"/>
</g>
</svg>
